<svg width="38" height="10" viewBox="0 0 38 10" fill="none" xmlns="http://www.w3.org/2000/svg">
<path d="M0.65625 4.94141C0.65625 3.70443 1.04688 2.69531 1.82812 1.91406C2.6224 1.11979 3.67057 0.722656 4.97266 0.722656C6.3138 0.722656 7.375 1.11979 8.15625 1.91406C8.9375 2.69531 9.32812 3.72396 9.32812 5V5.72266C9.32812 6.94661 8.9375 7.94922 8.15625 8.73047C7.38802 9.4987 6.33333 9.88281 4.99219 9.88281C3.70312 9.88281 2.66146 9.51172 1.86719 8.76953C1.08594 8.01432 0.682292 7.03125 0.65625 5.82031V4.94141ZM14.6406 4.94141C14.6406 3.70443 15.0312 2.69531 15.8125 1.91406C16.6068 1.11979 17.6549 0.722656 18.957 0.722656C20.2982 0.722656 21.3594 1.11979 22.1406 1.91406C22.9219 2.69531 23.3125 3.72396 23.3125 5V5.72266C23.3125 6.94661 22.9219 7.94922 22.1406 8.73047C21.3724 9.4987 20.3177 9.88281 18.9766 9.88281C17.6875 9.88281 16.6458 9.51172 15.8516 8.76953C15.0703 8.01432 14.6667 7.03125 14.6406 5.82031V4.94141ZM28.625 4.94141C28.625 3.70443 29.0156 2.69531 29.7969 1.91406C30.5911 1.11979 31.6393 0.722656 32.9414 0.722656C34.2826 0.722656 35.3438 1.11979 36.125 1.91406C36.9062 2.69531 37.2969 3.72396 37.2969 5V5.72266C37.2969 6.94661 36.9062 7.94922 36.125 8.73047C35.3568 9.4987 34.3021 9.88281 32.9609 9.88281C31.6719 9.88281 30.6302 9.51172 29.8359 8.76953C29.0547 8.01432 28.651 7.03125 28.625 5.82031V4.94141Z" fill="#979797"/>
</svg>
